# xmcd
#
# Track frame offsets: 
#        151
#        21010
#        36369
#        55834
#        72891
#        86348
#        103273
#        119888
#        135633
#        155764
#        172449
#        189578
#        206399
#        223986
#
# Disc length: 3170 seconds
#
# Revision: 0
# Processed by: cddbd v1.5.2PL0 Copyright (c) Steve Scherf et al.
# Submitted via: ExactAudioCopy v0.95b4
#
DISCID=da0c600e
DTITLE=รุ่ง สุริยา ยิ่งยง ยอดบัวงาม - คู่ฮิตลูกทุ่ง
DYEAR=2004
DGENRE=Country
TTITLE0=น้ำตาหล่นบนมือถือ
TTITLE1=กินยาผิดซอง
TTITLE2=รักรอนที่ดอนเจดีย์
TTITLE3=ได้ดีเพราะเมีย
TTITLE4=เพลงรักมือถือ
TTITLE5=รอน้องหน้าเธค
TTITLE6=จั๊กหน่อย
TTITLE7=อยากมีคนอยู่ด้วย
TTITLE8=พระเจ้ากรุงธน
TTITLE9=สองแถวระทม
TTITLE10=หมอนแทนกา'อกไม้แทนแก้ม
TTITLE11=ก่อสร้างกีดเซราะ
TTITLE12=ลูกผู้ชายก็ร้องไห้เป็น
TTITLE13=รักสาวซะเราะแอง
EXTD=
EXTT0=
EXTT1=
EXTT2=
EXTT3=
EXTT4=
EXTT5=
EXTT6=
EXTT7=
EXTT8=
EXTT9=
EXTT10=
EXTT11=
EXTT12=
EXTT13=
PLAYORDER=
